<svg xmlns="http://www.w3.org/2000/svg" xmlns:xlink="http://www.w3.org/1999/xlink" xml:space="preserve" version="1.1" style="shape-rendering:geometricPrecision;text-rendering:geometricPrecision;image-rendering:optimizeQuality;" viewBox="0 0 212 400" x="0px" y="0px" fill-rule="evenodd" clip-rule="evenodd">
	<defs>
		<style type="text/css">
			.fil0 {fill:#bf9268}
			.fil1 {fill:#bf9268;fill-rule:nonzero}
		</style>
	</defs>
	<g>
		<path class="fil0" d="M105 119c-10,-1 -19,-7 -23,-16 0,-14 7,-27 19,-33 6,-4 13,-5 19,-5 17,24 19,55 -15,54zm23 -52c4,1 8,3 12,5 43,33 -9,100 -49,118 0,0 7,0 23,0 66,-33 67,-130 6,-135 -5,-6 -28,-34 -27,-40 2,-7 10,-9 14,-4 12,9 19,6 22,-9 -6,10 -14,10 -25,3 -15,-11 -25,-3 -17,14 3,6 20,29 26,36 -1,0 -2,1 -3,1 -21,3 -37,20 -40,41 -30,-20 -70,4 -68,40 1,38 57,66 83,46 18,-15 12,-48 -16,-38 9,10 12,18 5,22 -21,12 -60,-10 -60,-40 1,-28 36,-42 56,-20 4,13 15,24 29,26 37,6 55,-31 29,-66z" />
		<path class="fil0" d="M168 197c0,1 -1,2 -1,4 1,52 1,119 -80,119l-6 0c-81,0 -81,-67 -80,-119 -1,-2 -1,-3 -1,-4 0,-36 168,-36 168,0zm-84 -21c41,0 75,8 75,17 0,10 -34,18 -75,18 -42,0 -76,-8 -76,-18 0,-9 34,-17 76,-17zm-78 30c-1,49 5,105 75,105l6 0c69,0 75,-56 75,-105 -12,8 -43,15 -78,15 -36,0 -66,-7 -78,-15z" />
		<path class="fil0" d="M152 289c3,-8 4,-13 4,-13 18,-5 54,-34 47,-59 -3,-12 -17,-11 -26,-4 -12,10 0,20 10,11 -4,23 -28,7 -24,-10 4,-16 36,-25 45,-6 11,28 -1,60 -56,81z" />
		<ellipse class="fil0" cx="84" cy="195" rx="44" ry="6" />
		<path class="fil1" d="M95 229c-6,2 -8,8 -7,13 1,10 10,24 30,37 21,-13 29,-27 30,-37 1,-5 -1,-11 -7,-13 -7,-3 -17,2 -23,7 -5,-5 -15,-10 -23,-7z" />
	</g>
</svg>
